<?xml version="1.0" encoding="UTF-8" standalone="no" ?>
<!DOCTYPE svg PUBLIC "-//W3C//DTD SVG 1.1//EN" "http://www.w3.org/Graphics/SVG/1.1/DTD/svg11.dtd">
<svg xmlns="http://www.w3.org/2000/svg" xmlns:xlink="http://www.w3.org/1999/xlink" version="1.1" width="222" height="145" viewBox="0 0 222 145" xml:space="preserve">
<desc>Created with Fabric.js 3.6.6</desc>
<defs>
</defs>
<g transform="matrix(1.41 0 0 1.41 113.32 70.63)"  >
<path style="stroke: none; stroke-width: 1; stroke-dasharray: none; stroke-linecap: butt; stroke-dashoffset: 0; stroke-linejoin: miter; stroke-miterlimit: 4; fill: rgb(0,0,0); fill-rule: nonzero; opacity: 1;"  transform=" translate(-76.35, -46.02)" d="M 1.96 0 C 0.88 0 0 0.85 0 1.88 v 88.3 c 0 1 0.88 1.86 1.94 1.86 h 26.1 v -1.65 H 1.96 c -0.15 0 -0.25 -0.1 -0.25 -0.23 V 1.87 c 0 -0.14 0.1 -0.22 0.24 -0.22 h 148.8 c 0.15 0 0.24 0.08 0.24 0.23 v 88.3 c 0 0.13 -0.1 0.22 -0.24 0.22 h -27.4 v 1.64 h 27.4 c 1.07 0 1.95 -0.86 1.95 -1.88 V 1.87 c 0 -1.02 -0.88 -1.87 -1.94 -1.87 H 1.96 z" stroke-linecap="round" />
</g>
<g transform="matrix(1 0 0 1 113.17 78.79)"  >
<g style=""   >
		<g transform="matrix(1 0 0 0.91 0 -5.55)" style=""  >
		<text xml:space="preserve" font-family="'Open Sans', sans-serif" font-size="120" font-style="normal" font-weight="normal" style="stroke: none; stroke-width: 1; stroke-dasharray: none; stroke-linecap: butt; stroke-dashoffset: 0; stroke-linejoin: miter; stroke-miterlimit: 4; fill: rgb(0,0,0); fill-rule: nonzero; opacity: 1; white-space: pre;" ><tspan x="-40.37" y="39.27" style="stroke-width: 1; font-family: 'Open Sans', sans-serif; font-size: 125px; font-style: normal; font-weight: normal; fill: rgb(0,0,0); ">#</tspan></text>
</g>
		<g transform="matrix(1 0 0 1 -0.83 55.83)" style=""  >
		<text xml:space="preserve" font-family="'Open Sans', sans-serif" font-size="25" font-style="normal" font-weight="bold" style="stroke: none; stroke-width: 1; stroke-dasharray: none; stroke-linecap: butt; stroke-dashoffset: 0; stroke-linejoin: miter; stroke-miterlimit: 4; fill: rgb(0,0,0); fill-rule: nonzero; opacity: 1; white-space: pre;" ><tspan x="-47.88" y="7.85" style="stroke-width: 1; font-family: 'Open Sans', sans-serif; font-style: normal; fill: rgb(0,0,0); ">admin.lt</tspan></text>
</g>
</g>
</g>
</svg>